<?xml version="1.0" encoding="UTF-8" standalone="no"?><svg xmlns="http://www.w3.org/3000/svg" xmlns:xlink="http://www.w3.org/1999/xlink" fill="#000000" height="1770" preserveAspectRatio="xMidYMid meet" version="1" viewBox="341.3 341.3 1770.0 1770.0" width="1770" zoomAndPan="magnify"><g><g id="change1_1"><path d="M 1226.261719 2111.238281 C 738.265625 2111.238281 341.265625 1714.21875 341.265625 1226.246094 C 341.265625 738.261719 738.265625 341.257812 1226.261719 341.257812 C 1714.238281 341.257812 2111.226562 738.261719 2111.226562 1226.246094 C 2111.226562 1714.21875 1714.238281 2111.238281 1226.261719 2111.238281" fill="#ffbd59"/></g><g id="change2_1"><path d="M 1226.257812 2055.519531 C 768.992188 2055.519531 396.972656 1683.511719 396.972656 1226.253906 C 396.972656 768.984375 768.992188 396.972656 1226.257812 396.972656 C 1683.503906 396.972656 2055.527344 768.984375 2055.527344 1226.253906 C 2055.527344 1683.511719 1683.503906 2055.519531 1226.257812 2055.519531" fill="#000000"/></g><g id="change1_2"><path d="M 1340.261719 1340.203125 L 680.800781 1772.011719 L 1112.207031 1112.273438 L 1771.675781 680.445312 L 1340.261719 1340.203125" fill="#ffbd59"/></g><g id="change2_2"><path d="M 1134.269531 1134.308594 L 1666.207031 785.988281 L 1318.222656 1318.15625 L 1134.269531 1134.308594" fill="#000000"/></g><g id="change1_3"><path d="M 1226.261719 1357.070312 C 1154.121094 1357.070312 1095.410156 1298.378906 1095.410156 1226.25 C 1095.410156 1154.109375 1154.121094 1095.421875 1226.261719 1095.421875 C 1298.378906 1095.421875 1357.070312 1154.109375 1357.070312 1226.25 C 1357.070312 1298.378906 1298.378906 1357.070312 1226.261719 1357.070312" fill="#ffbd59"/></g><g id="change2_3"><path d="M 1226.261719 1320.828125 C 1174.101562 1320.828125 1131.660156 1278.390625 1131.660156 1226.25 C 1131.660156 1174.089844 1174.101562 1131.660156 1226.261719 1131.660156 C 1278.421875 1131.660156 1320.828125 1174.089844 1320.828125 1226.25 C 1320.828125 1278.390625 1278.421875 1320.828125 1226.261719 1320.828125" fill="#000000"/></g><g id="change1_4"><path d="M 1156.933594 617.515625 L 1156.933594 442.742188 L 1191.273438 442.742188 L 1262.804688 559.457031 L 1262.804688 442.742188 L 1295.578125 442.742188 L 1295.578125 617.515625 L 1260.179688 617.515625 L 1189.722656 503.539062 L 1189.722656 617.515625 L 1156.933594 617.515625" fill="#ffbd59"/></g><g id="change1_5"><path d="M 1155.199219 1949.769531 L 1189.539062 1946.429688 C 1191.601562 1957.960938 1195.800781 1966.421875 1202.121094 1971.828125 C 1208.429688 1977.230469 1216.960938 1979.929688 1227.691406 1979.929688 C 1239.039062 1979.929688 1247.601562 1977.53125 1253.378906 1972.71875 C 1259.128906 1967.910156 1262.019531 1962.289062 1262.019531 1955.851562 C 1262.019531 1951.71875 1260.800781 1948.210938 1258.390625 1945.300781 C 1255.941406 1942.398438 1251.710938 1939.878906 1245.691406 1937.730469 C 1241.550781 1936.300781 1232.128906 1933.761719 1217.429688 1930.101562 C 1198.511719 1925.410156 1185.25 1919.648438 1177.621094 1912.808594 C 1166.890625 1903.199219 1161.519531 1891.46875 1161.519531 1877.640625 C 1161.519531 1868.75 1164.03125 1860.410156 1169.089844 1852.671875 C 1174.128906 1844.921875 1181.398438 1839.019531 1190.910156 1834.960938 C 1200.390625 1830.910156 1211.859375 1828.878906 1225.300781 1828.878906 C 1247.238281 1828.878906 1263.75 1833.699219 1274.839844 1843.308594 C 1285.929688 1852.929688 1291.738281 1865.761719 1292.308594 1881.820312 L 1257.019531 1883.359375 C 1255.5 1874.390625 1252.25 1867.929688 1247.300781 1863.988281 C 1242.320312 1860.058594 1234.871094 1858.089844 1224.949219 1858.089844 C 1214.691406 1858.089844 1206.648438 1860.199219 1200.859375 1864.410156 C 1197.109375 1867.109375 1195.261719 1870.730469 1195.261719 1875.261719 C 1195.261719 1879.390625 1196.988281 1882.929688 1200.511719 1885.871094 C 1204.949219 1889.609375 1215.769531 1893.5 1232.929688 1897.550781 C 1250.101562 1901.601562 1262.800781 1905.800781 1271.019531 1910.128906 C 1279.25 1914.460938 1285.691406 1920.378906 1290.339844 1927.890625 C 1294.988281 1935.398438 1297.308594 1944.691406 1297.308594 1955.730469 C 1297.308594 1965.75 1294.511719 1975.128906 1288.96875 1983.871094 C 1283.390625 1992.609375 1275.519531 1999.109375 1265.359375 2003.359375 C 1255.171875 2007.601562 1242.5 2009.738281 1227.328125 2009.738281 C 1205.210938 2009.738281 1188.261719 2004.628906 1176.421875 1994.421875 C 1164.558594 1984.210938 1157.5 1969.320312 1155.199219 1949.769531" fill="#ffbd59"/></g><g id="change1_6"><path d="M 1876.828125 1313.625 L 1876.828125 1138.859375 L 2006.417969 1138.859375 L 2006.417969 1168.425781 L 1912.117188 1168.425781 L 1912.117188 1207.164062 L 1999.855469 1207.164062 L 1999.855469 1236.617188 L 1912.117188 1236.617188 L 1912.117188 1284.1875 L 2009.757812 1284.1875 L 2009.757812 1313.625 L 1876.828125 1313.625" fill="#ffbd59"/></g><g id="change1_7"><path d="M 484.480469 1313.628906 L 442.753906 1138.859375 L 478.875 1138.859375 L 505.222656 1258.910156 L 537.171875 1138.859375 L 579.136719 1138.859375 L 609.777344 1260.941406 L 636.601562 1138.859375 L 672.128906 1138.859375 L 629.6875 1313.628906 L 592.253906 1313.628906 L 557.441406 1182.96875 L 522.746094 1313.628906 L 484.480469 1313.628906" fill="#ffbd59"/></g></g></svg>